HIERARCHY
ROOT Hips
{
	OFFSET -19.878815 -49.619598 87.647690
	CHANNELS 6 Xposition Yposition Zposition Zrotation Yrotation Xrotation
	JOINT Spine
	{
		OFFSET 0.000000 2.080109 8.814247
		CHANNELS 6 Xposition Yposition Zposition Zrotation Yrotation Xrotation
		JOINT Spine1
		{
			OFFSET 0.000000 0.000000 8.844139
			CHANNELS 6 Xposition Yposition Zposition Zrotation Yrotation Xrotation
			JOINT Spine2
			{
				OFFSET 0.000000 0.000000 11.682266
				CHANNELS 6 Xposition Yposition Zposition Zrotation Yrotation Xrotation
				JOINT Spine3
				{
					OFFSET 0.000000 0.000004 11.746704
					CHANNELS 6 Xposition Yposition Zposition Zrotation Yrotation Xrotation
					JOINT Neck
					{
						OFFSET 0.000000 0.000000 17.658264
						CHANNELS 6 Xposition Yposition Zposition Zrotation Yrotation Xrotation
						JOINT Neck1
						{
							OFFSET 0.000000 0.000000 5.101517
							CHANNELS 6 Xposition Yposition Zposition Zrotation Yrotation Xrotation
							JOINT Head
							{
								OFFSET 0.000000 0.000000 5.101517
								CHANNELS 6 Xposition Yposition Zposition Zrotation Yrotation Xrotation
								JOINT HeadEnd
								{
									OFFSET 0.000000 0.000000 11.655090
									CHANNELS 6 Xposition Yposition Zposition Zrotation Yrotation Xrotation
									End Site
									{
										OFFSET 0.000000 0.000000 0.100006
									}
								}
							}
						}
					}
					JOINT RightShoulder
					{
						OFFSET -2.625389 0.000000 11.175217
						CHANNELS 6 Xposition Yposition Zposition Zrotation Yrotation Xrotation
						JOINT RightArm
						{
							OFFSET 0.000000 0.000000 10.434708
							CHANNELS 6 Xposition Yposition Zposition Zrotation Yrotation Xrotation
							JOINT RightForeArm
							{
								OFFSET 0.000000 0.000004 29.628418
								CHANNELS 6 Xposition Yposition Zposition Zrotation Yrotation Xrotation
								JOINT RightHand
								{
									OFFSET 0.000000 0.000000 22.857605
									CHANNELS 6 Xposition Yposition Zposition Zrotation Yrotation Xrotation
									JOINT RightHandThumb1
									{
										OFFSET -2.867323 -2.944290 3.959564
										CHANNELS 6 Xposition Yposition Zposition Zrotation Yrotation Xrotation
										JOINT RightHandThumb2
										{
											OFFSET 0.000000 0.000000 3.350403
											CHANNELS 6 Xposition Yposition Zposition Zrotation Yrotation Xrotation
											JOINT RightHandThumb3
											{
												OFFSET 0.000000 0.000000 3.756516
												CHANNELS 6 Xposition Yposition Zposition Zrotation Yrotation Xrotation
												JOINT RightHandThumb4
												{
													OFFSET 0.000000 0.000000 3.147339
													CHANNELS 6 Xposition Yposition Zposition Zrotation Yrotation Xrotation
													End Site
													{
														OFFSET 0.000000 0.000000 0.100006
													}
												}
											}
										}
									}
									JOINT RightHandIndex1
									{
										OFFSET -0.086752 -2.345280 10.030899
										CHANNELS 6 Xposition Yposition Zposition Zrotation Yrotation Xrotation
										JOINT RightHandIndex2
										{
											OFFSET 0.000000 0.000000 4.061096
											CHANNELS 6 Xposition Yposition Zposition Zrotation Yrotation Xrotation
											JOINT RightHandIndex3
											{
												OFFSET 0.000000 0.000000 3.248871
												CHANNELS 6 Xposition Yposition Zposition Zrotation Yrotation Xrotation
												JOINT RightHandIndex4
												{
													OFFSET 0.000000 0.000000 2.639709
													CHANNELS 6 Xposition Yposition Zposition Zrotation Yrotation Xrotation
													End Site
													{
														OFFSET 0.000000 0.000000 0.100006
													}
												}
											}
										}
									}
									JOINT RightHandMiddle1
									{
										OFFSET 0.104101 -0.006767 9.502945
										CHANNELS 6 Xposition Yposition Zposition Zrotation Yrotation Xrotation
										JOINT RightHandMiddle2
										{
											OFFSET 0.000000 0.000000 4.568726
											CHANNELS 6 Xposition Yposition Zposition Zrotation Yrotation Xrotation
											JOINT RightHandMiddle3
											{
												OFFSET 0.000000 0.000000 3.654984
												CHANNELS 6 Xposition Yposition Zposition Zrotation Yrotation Xrotation
												JOINT RightHandMiddle4
												{
													OFFSET 0.000000 0.000000 2.741241
													CHANNELS 6 Xposition Yposition Zposition Zrotation Yrotation Xrotation
													End Site
													{
														OFFSET 0.000000 0.000000 0.100006
													}
												}
											}
										}
									}
									JOINT RightHandRing1
									{
										OFFSET 0.086752 2.267441 8.921707
										CHANNELS 6 Xposition Yposition Zposition Zrotation Yrotation Xrotation
										JOINT RightHandRing2
										{
											OFFSET 0.000000 0.000000 4.061096
											CHANNELS 6 Xposition Yposition Zposition Zrotation Yrotation Xrotation
											JOINT RightHandRing3
											{
												OFFSET 0.000000 0.000000 3.654984
												CHANNELS 6 Xposition Yposition Zposition Zrotation Yrotation Xrotation
												JOINT RightHandRing4
												{
													OFFSET 0.000000 0.000000 2.741241
													CHANNELS 6 Xposition Yposition Zposition Zrotation Yrotation Xrotation
													End Site
													{
														OFFSET 0.000000 0.000000 0.100006
													}
												}
											}
										}
									}
									JOINT RightHandPinky1
									{
										OFFSET -0.173504 4.467197 7.976990
										CHANNELS 6 Xposition Yposition Zposition Zrotation Yrotation Xrotation
										JOINT RightHandPinky2
										{
											OFFSET 0.000000 0.000000 3.350403
											CHANNELS 6 Xposition Yposition Zposition Zrotation Yrotation Xrotation
											JOINT RightHandPinky3
											{
												OFFSET 0.000000 0.000000 2.842758
												CHANNELS 6 Xposition Yposition Zposition Zrotation Yrotation Xrotation
												JOINT RightHandPinky4
												{
													OFFSET 0.000000 0.000000 2.639709
													CHANNELS 6 Xposition Yposition Zposition Zrotation Yrotation Xrotation
													End Site
													{
														OFFSET 0.000000 0.000000 0.100006
													}
												}
											}
										}
									}
									JOINT RightForeArmEnd
									{
										OFFSET 0.000000 0.000000 0.000000
										CHANNELS 6 Xposition Yposition Zposition Zrotation Yrotation Xrotation
										End Site
										{
											OFFSET 0.000000 0.000000 0.100006
										}
									}
								}
								JOINT RightArmEnd
								{
									OFFSET 0.000000 0.000000 0.000000
									CHANNELS 6 Xposition Yposition Zposition Zrotation Yrotation Xrotation
									End Site
									{
										OFFSET 0.000000 0.000000 0.100006
									}
								}
							}
						}
					}
					JOINT LeftShoulder
					{
						OFFSET 2.625389 0.000000 11.175217
						CHANNELS 6 Xposition Yposition Zposition Zrotation Yrotation Xrotation
						JOINT LeftArm
						{
							OFFSET 0.000000 0.000000 10.813629
							CHANNELS 6 Xposition Yposition Zposition Zrotation Yrotation Xrotation
							JOINT LeftForeArm
							{
								OFFSET 0.000000 0.000004 28.724777
								CHANNELS 6 Xposition Yposition Zposition Zrotation Yrotation Xrotation
								JOINT LeftHand
								{
									OFFSET 0.644384 0.328873 25.716171
									CHANNELS 6 Xposition Yposition Zposition Zrotation Yrotation Xrotation
									JOINT LeftHandThumb1
									{
										OFFSET 2.867323 -2.944290 3.959564
										CHANNELS 6 Xposition Yposition Zposition Zrotation Yrotation Xrotation
										JOINT LeftHandThumb2
										{
											OFFSET 0.000000 0.000000 3.350403
											CHANNELS 6 Xposition Yposition Zposition Zrotation Yrotation Xrotation
											JOINT LeftHandThumb3
											{
												OFFSET 0.000000 0.000000 3.756516
												CHANNELS 6 Xposition Yposition Zposition Zrotation Yrotation Xrotation
												JOINT LeftHandThumb4
												{
													OFFSET 0.000000 0.000000 3.100006
													CHANNELS 6 Xposition Yposition Zposition Zrotation Yrotation Xrotation
													End Site
													{
														OFFSET 0.000000 0.000000 0.100006
													}
												}
											}
										}
									}
									JOINT LeftHandIndex1
									{
										OFFSET 0.086752 -2.345280 10.030899
										CHANNELS 6 Xposition Yposition Zposition Zrotation Yrotation Xrotation
										JOINT LeftHandIndex2
										{
											OFFSET 0.000000 0.000000 4.061096
											CHANNELS 6 Xposition Yposition Zposition Zrotation Yrotation Xrotation
											JOINT LeftHandIndex3
											{
												OFFSET 0.000000 0.000000 3.248871
												CHANNELS 6 Xposition Yposition Zposition Zrotation Yrotation Xrotation
												JOINT LeftHandIndex4
												{
													OFFSET 0.000000 0.000000 2.639709
													CHANNELS 6 Xposition Yposition Zposition Zrotation Yrotation Xrotation
													End Site
													{
														OFFSET 0.000000 0.000000 0.100006
													}
												}
											}
										}
									}
									JOINT LeftHandMiddle1
									{
										OFFSET -0.104101 -0.006767 9.502945
										CHANNELS 6 Xposition Yposition Zposition Zrotation Yrotation Xrotation
										JOINT LeftHandMiddle2
										{
											OFFSET 0.000000 0.000000 4.568726
											CHANNELS 6 Xposition Yposition Zposition Zrotation Yrotation Xrotation
											JOINT LeftHandMiddle3
											{
												OFFSET 0.000000 0.000000 3.654984
												CHANNELS 6 Xposition Yposition Zposition Zrotation Yrotation Xrotation
												JOINT LeftHandMiddle4
												{
													OFFSET 0.000000 0.000000 2.741241
													CHANNELS 6 Xposition Yposition Zposition Zrotation Yrotation Xrotation
													End Site
													{
														OFFSET 0.000000 0.000000 0.100006
													}
												}
											}
										}
									}
									JOINT LeftHandRing1
									{
										OFFSET -0.086752 2.267441 8.921707
										CHANNELS 6 Xposition Yposition Zposition Zrotation Yrotation Xrotation
										JOINT LeftHandRing2
										{
											OFFSET 0.000000 0.000000 4.061096
											CHANNELS 6 Xposition Yposition Zposition Zrotation Yrotation Xrotation
											JOINT LeftHandRing3
											{
												OFFSET 0.000000 0.000000 3.654984
												CHANNELS 6 Xposition Yposition Zposition Zrotation Yrotation Xrotation
												JOINT LeftHandRing4
												{
													OFFSET 0.000000 0.000000 2.741241
													CHANNELS 6 Xposition Yposition Zposition Zrotation Yrotation Xrotation
													End Site
													{
														OFFSET 0.000000 0.000000 0.100006
													}
												}
											}
										}
									}
									JOINT LeftHandPinky1
									{
										OFFSET 0.173504 4.467197 7.976990
										CHANNELS 6 Xposition Yposition Zposition Zrotation Yrotation Xrotation
										JOINT LeftHandPinky2
										{
											OFFSET 0.000000 0.000000 3.350403
											CHANNELS 6 Xposition Yposition Zposition Zrotation Yrotation Xrotation
											JOINT LeftHandPinky3
											{
												OFFSET 0.000000 0.000000 2.842758
												CHANNELS 6 Xposition Yposition Zposition Zrotation Yrotation Xrotation
												JOINT LeftHandPinky4
												{
													OFFSET 0.000000 0.000000 2.639709
													CHANNELS 6 Xposition Yposition Zposition Zrotation Yrotation Xrotation
													End Site
													{
														OFFSET 0.000000 0.000000 0.100006
													}
												}
											}
										}
									}
									JOINT LeftForeArmEnd
									{
										OFFSET 0.000000 0.000000 0.000000
										CHANNELS 6 Xposition Yposition Zposition Zrotation Yrotation Xrotation
										End Site
										{
											OFFSET 0.000000 0.000000 0.100006
										}
									}
								}
								JOINT LeftArmEnd
								{
									OFFSET 0.000000 0.000000 0.000000
									CHANNELS 6 Xposition Yposition Zposition Zrotation Yrotation Xrotation
									End Site
									{
										OFFSET 0.000000 0.000000 0.100006
									}
								}
							}
						}
					}
				}
			}
		}
	}
	JOINT RightUpLeg
	{
		OFFSET -11.289944 0.000000 0.000000
		CHANNELS 6 Xposition Yposition Zposition Zrotation Yrotation Xrotation
		JOINT RightLeg
		{
			OFFSET 0.000000 -0.000004 -38.200321
			CHANNELS 6 Xposition Yposition Zposition Zrotation Yrotation Xrotation
			JOINT RightFoot
			{
				OFFSET 0.000000 -0.000004 -39.900856
				CHANNELS 6 Xposition Yposition Zposition Zrotation Yrotation Xrotation
				JOINT RightToeBase
				{
					OFFSET 0.000000 -15.261642 0.000001
					CHANNELS 6 Xposition Yposition Zposition Zrotation Yrotation Xrotation
					JOINT RightToeBaseEnd
					{
						OFFSET 0.000000 -7.370712 0.000001
						CHANNELS 6 Xposition Yposition Zposition Zrotation Yrotation Xrotation
						End Site
						{
							OFFSET 0.000000 0.000000 0.100000
						}
					}
				}
				JOINT RightLegEnd
				{
					OFFSET 0.000000 0.000000 0.000000
					CHANNELS 6 Xposition Yposition Zposition Zrotation Yrotation Xrotation
					End Site
					{
						OFFSET 0.000000 0.000000 0.100000
					}
				}
			}
			JOINT RightUpLegEnd
			{
				OFFSET 0.000000 0.000000 0.000000
				CHANNELS 6 Xposition Yposition Zposition Zrotation Yrotation Xrotation
				End Site
				{
					OFFSET 0.000000 0.000000 0.099998
				}
			}
		}
	}
	JOINT LeftUpLeg
	{
		OFFSET 11.315661 0.000000 0.000000
		CHANNELS 6 Xposition Yposition Zposition Zrotation Yrotation Xrotation
		JOINT LeftLeg
		{
			OFFSET 0.000000 -0.000004 -38.200321
			CHANNELS 6 Xposition Yposition Zposition Zrotation Yrotation Xrotation
			JOINT LeftFoot
			{
				OFFSET 0.000000 -0.000004 -39.900856
				CHANNELS 6 Xposition Yposition Zposition Zrotation Yrotation Xrotation
				JOINT LeftToeBase
				{
					OFFSET 0.000000 -15.261642 0.000001
					CHANNELS 6 Xposition Yposition Zposition Zrotation Yrotation Xrotation
					JOINT LeftToeBaseEnd
					{
						OFFSET 0.000000 -7.539993 0.000001
						CHANNELS 6 Xposition Yposition Zposition Zrotation Yrotation Xrotation
						End Site
						{
							OFFSET 0.000000 0.000000 0.100000
						}
					}
				}
				JOINT LeftLegEnd
				{
					OFFSET 0.000000 0.000000 0.000000
					CHANNELS 6 Xposition Yposition Zposition Zrotation Yrotation Xrotation
					End Site
					{
						OFFSET 0.000000 0.000000 0.100000
					}
				}
			}
			JOINT LeftUpLegEnd
			{
				OFFSET 0.000000 0.000000 0.000000
				CHANNELS 6 Xposition Yposition Zposition Zrotation Yrotation Xrotation
				End Site
				{
					OFFSET 0.000000 0.000000 0.099998
				}
			}
		}
	}
}
MOTION
Frames: 2
Frame Time: 0.016667
0.544840 -25.790474 87.169754 5.692406 1.492197 -6.106319 0.000000 2.080104 8.814245 -0.085528 -0.358651 5.506467 -0.000001 0.000001 8.844146 -0.613865 -1.245176 2.075822 0.000000 -0.000004 11.682275 -1.295624 0.159479 9.079690 0.000000 0.000002 11.746696 -0.507417 1.643887 2.460784 -0.000001 -0.000002 17.658278 -3.101241 -8.712224 2.306261 -0.000004 -0.000004 5.101530 -3.064377 4.262596 -13.018781 -0.000001 0.000003 5.101520 3.806851 -1.210325 -22.659147 0.000001 0.000004 11.655090 0.000000 -0.000000 -0.000000 -2.625387 -0.000000 11.175219 3.434194 -93.411866 0.165635 -0.000010 0.000000 10.434711 -84.789074 -33.378465 52.462085 0.000002 -0.000006 29.628408 -1.065590 -0.186504 31.936991 -0.000009 0.000011 22.857637 -5.111793 -10.023196 -16.657375 -2.867313 -2.944272 3.959554 31.758071 -23.131911 43.104395 0.000006 0.000006 3.350414 -25.758214 11.067735 -44.071444 -0.000007 -0.000007 3.756496 -17.006157 9.863025 -30.019607 0.000002 0.000004 3.147353 0.000000 -0.000000 0.000001 -0.086776 -2.345293 10.030928 -32.793316 -56.739068 28.526314 0.000002 0.000003 4.061113 -2.389947 -42.551863 7.412745 -0.000017 -0.000003 3.248878 -2.889936 -42.551870 7.412732 0.000002 -0.000002 2.639710 -0.000000 0.000000 -0.000001 0.104099 -0.006781 9.502951 -23.911746 -58.435465 23.123476 -0.000002 -0.000004 4.568729 -0.588238 -42.768759 2.778636 -0.000029 -0.000002 3.654996 -1.088238 -42.768756 2.778627 -0.000003 -0.000000 2.741271 -0.000001 0.000002 0.000002 0.086727 2.267437 8.921726 -9.748206 -62.849618 14.943149 -0.000017 0.000001 4.061124 0.370828 -44.029377 -3.389569 -0.000023 0.000002 3.654998 1.370813 -44.029380 -3.389576 0.000004 -0.000004 2.741271 -0.000001 0.000001 0.000001 -0.173496 4.467186 7.977019 8.879130 -63.108960 3.039342 -0.000012 0.000002 3.350406 1.859293 -41.922472 -10.052163 -0.000014 0.000002 2.842746 3.859300 -41.922226 -10.052134 0.000002 0.000001 2.639709 0.000000 0.000001 0.000001 0.000008 -0.000013 0.000029 0.000001 0.000001 0.000002 -0.000004 0.000005 0.000000 0.000001 0.000000 0.000000 2.625399 0.000001 11.175205 -4.063472 89.358723 -0.052870 -0.000022 0.000003 10.813631 81.249820 35.739248 46.265564 0.000000 0.000017 28.724781 9.920005 -3.973650 45.127606 0.644384 0.328865 25.716167 -0.358806 9.786587 -26.047053 2.867322 -2.944293 3.959587 -31.887343 23.894261 42.064867 -0.000001 0.000008 3.350423 27.441175 -11.056014 -46.753413 -0.000011 -0.000005 3.756511 18.136179 -10.141683 -31.854284 -0.000001 -0.000019 3.100008 -0.000001 -0.000002 -0.000003 0.086742 -2.345278 10.030906 2.812871 68.837904 -6.043128 -0.000000 0.000002 4.061110 -3.663182 48.659244 -9.192065 -0.000011 0.000007 3.248893 -4.163185 48.659063 -9.192034 -0.000002 -0.000005 2.639711 -0.000000 -0.000000 -0.000001 -0.104106 -0.006761 9.502979 17.152200 69.429098 11.988970 0.000008 -0.000003 4.568731 -1.119280 49.469011 -3.514110 0.000002 -0.000005 3.654985 -1.619211 49.468871 -3.514059 0.000000 -0.000007 2.741256 -0.000000 -0.000000 0.000000 -0.086767 2.267451 8.921728 43.792335 69.313026 48.083415 -0.000006 0.000003 4.061099 1.279352 52.681034 4.601890 0.000000 0.000004 3.655001 2.279379 52.680990 4.601927 -0.000001 0.000003 2.741257 0.000001 0.000001 0.000000 0.173513 4.467198 7.977024 50.306160 61.082109 67.936053 0.000010 0.000003 3.350410 4.857670 51.520933 14.155389 -0.000006 0.000001 2.842762 6.857562 51.520756 14.155239 -0.000001 -0.000001 2.639693 -0.000001 0.000001 0.000002 0.000001 0.000004 0.000030 -0.000003 -0.000001 -0.000000 -0.000001 0.000001 -0.000001 0.000001 -0.000001 0.000000 -11.289944 -0.000011 0.000013 2.208942 -3.564108 10.228696 -0.000001 -0.000006 -38.200321 -0.577456 0.121963 11.909657 -0.000003 -0.000001 -39.900856 -8.317996 6.693019 13.994266 0.000004 -15.261648 0.000005 -1.090340 0.199094 -29.832852 -0.000000 -7.370728 0.000002 -0.000000 -0.000000 0.000000 0.000002 -0.000008 0.000001 0.000000 -0.000001 0.000004 -0.000002 -0.000006 0.000003 -0.000000 -0.000000 0.000001 11.315659 -0.000014 0.000016 0.377080 -1.187966 10.881205 -0.000003 -0.000018 -38.200333 0.547764 -0.117963 12.484233 0.000000 -0.000009 -39.900852 -0.664006 -6.817069 11.185079 -0.000001 -15.261657 0.000010 0.866494 -0.075484 -28.651681 0.000000 -7.539993 0.000003 -0.000000 0.000000 0.000000 -0.000001 -0.000004 0.000000 0.000001 -0.000000 0.000001 -0.000001 -0.000006 0.000014 0.000001 -0.000000 0.000001 
0.534245 -25.708776 87.160881 5.474075 1.472541 -6.413279 -0.000001 2.080104 8.814233 -0.052391 -0.326636 5.590747 -0.000001 0.000003 8.844149 -0.607829 -1.316601 2.224631 0.000000 0.000006 11.682267 -1.242844 0.242774 9.189950 0.000000 -0.000001 11.746704 -0.476292 1.652126 2.209742 0.000000 -0.000003 17.658255 -3.103847 -8.736080 2.093944 -0.000001 -0.000002 5.101519 -3.080891 4.237797 -13.193694 0.000001 0.000001 5.101524 3.785288 -1.241352 -22.697233 -0.000000 0.000004 11.655090 -0.000000 -0.000000 0.000000 -2.625389 0.000001 11.175221 3.751296 -93.848363 0.116769 -0.000021 0.000000 10.434712 -80.860738 -32.836373 49.284029 0.000000 -0.000003 29.628426 0.370946 -0.536213 31.635978 -0.000001 0.000001 22.857626 -4.971670 -9.878742 -16.877777 -2.867331 -2.944275 3.959569 31.729838 -22.942045 43.364209 0.000007 -0.000011 3.350381 -25.337478 11.058787 -43.400600 0.000002 0.000002 3.756517 -16.725427 9.787698 -29.562203 0.000002 0.000003 3.147354 -0.000000 -0.000000 0.000000 -0.086771 -2.345282 10.030931 -31.720266 -55.843043 26.144779 -0.000015 0.000008 4.061090 -2.237587 -41.669420 7.185555 -0.000017 -0.000002 3.248887 -2.737464 -41.669615 7.185455 0.000006 -0.000001 2.639725 0.000001 -0.000000 -0.000001 0.104084 -0.006773 9.502937 -22.837118 -57.225203 20.638065 -0.000007 -0.000005 4.568753 -0.523777 -41.768782 2.682788 -0.000023 -0.000002 3.654984 -1.023922 -41.768810 2.682940 0.000007 -0.000004 2.741271 0.000000 -0.000001 0.000000 0.086725 2.267439 8.921728 -8.844374 -60.997496 12.631276 -0.000020 -0.000003 4.061127 0.272002 -42.790746 -3.245783 -0.000009 -0.000001 3.654992 1.271985 -42.790773 -3.245756 0.000005 -0.000004 2.741273 0.000001 0.000000 -0.000002 -0.173522 4.467193 7.977005 8.695983 -60.801121 2.079813 -0.000023 -0.000005 3.350428 1.547756 -40.568421 -9.579644 -0.000024 -0.000004 2.842760 3.547745 -40.568407 -9.579618 -0.000002 -0.000008 2.639728 0.000000 0.000003 -0.000003 -0.000005 -0.000004 0.000015 -0.000003 0.000001 0.000001 0.000004 -0.000005 0.000000 0.000002 -0.000001 -0.000001 2.625376 -0.000002 11.175200 -4.786535 89.805608 -0.639987 -0.000019 -0.000002 10.813650 77.097181 34.855821 43.152148 -0.000006 -0.000013 28.724783 8.723389 -3.980157 45.081161 0.644384 0.328874 25.716194 -0.074687 9.521829 -26.276397 2.867325 -2.944274 3.959590 -31.852638 23.703236 42.324633 0.000009 0.000000 3.350389 27.020496 -11.066225 -46.082873 -0.000010 -0.000009 3.756519 17.852783 -10.075332 -31.394995 0.000002 -0.000020 3.100007 -0.000000 -0.000003 -0.000001 0.086735 -2.345278 10.030895 2.457797 67.568473 -6.364189 0.000006 0.000000 4.061097 -3.456207 47.793777 -8.914520 0.000019 0.000003 3.248899 -3.956223 47.793784 -8.914545 -0.000001 0.000001 2.639724 -0.000000 0.000001 0.000001 -0.104102 -0.006768 9.502954 15.898790 68.096604 10.525192 -0.000001 0.000006 4.568723 -1.030220 48.500897 -3.396080 -0.000010 0.000004 3.654977 -1.530198 48.500883 -3.396075 0.000001 -0.000005 2.741257 0.000001 -0.000000 -0.000000 -0.086761 2.267446 8.921702 40.543470 68.037598 44.116667 -0.000026 0.000001 4.061110 1.118329 51.422578 4.397703 -0.000005 -0.000007 3.654984 2.118330 51.422753 4.397718 0.000003 0.000007 2.741241 -0.000000 -0.000001 -0.000000 0.173515 4.467182 7.976991 47.694388 59.834882 64.006973 -0.000004 0.000005 3.350432 4.311442 50.116161 13.450758 -0.000006 0.000001 2.842763 6.311462 50.116151 13.450767 -0.000000 0.000004 2.639709 0.000000 0.000000 -0.000000 0.000001 0.000002 -0.000000 0.000002 0.000002 0.000001 -0.000002 -0.000003 0.000031 0.000000 -0.000000 -0.000000 -11.289944 -0.000012 -0.000008 2.368136 -3.567766 10.461742 -0.000002 -0.000004 -38.200317 -0.574229 0.121596 11.897144 -0.000004 -0.000005 -39.900848 -8.279684 6.708276 13.946086 0.000000 -15.261651 0.000008 -1.082691 0.202768 -29.732800 -0.000002 -7.370712 0.000002 -0.000000 0.000001 0.000000 -0.000002 -0.000003 0.000001 -0.000000 -0.000000 0.000001 -0.000001 -0.000003 0.000004 0.000000 -0.000000 0.000004 11.315660 -0.000019 0.000003 0.446906 -1.149995 11.173135 -0.000001 -0.000011 -38.200317 0.548859 -0.117968 12.464516 -0.000002 -0.000006 -39.900864 -0.513007 -6.798093 11.168368 -0.000002 -15.261656 0.000006 0.859605 -0.084511 -28.622613 -0.000001 -7.539993 0.000002 -0.000000 0.000000 0.000000 -0.000002 -0.000004 -0.000001 0.000000 0.000000 -0.000002 -0.000002 -0.000014 0.000001 0.000001 -0.000000 -0.000001 
